<?xml version="1.0" encoding="UTF-8" standalone="no"?>
<!DOCTYPE svg PUBLIC "-//W3C//DTD SVG 1.1//EN"
 "http://www.w3.org/Graphics/SVG/1.1/DTD/svg11.dtd">
<!-- Generated by graphviz version 2.47.0 (20210316.0004)
 -->
<!-- Title: dependencies Pages: 1 -->
<svg width="1164pt" height="284pt"
 viewBox="0.00 0.00 1164.00 284.00" xmlns="http://www.w3.org/2000/svg" xmlns:xlink="http://www.w3.org/1999/xlink">
<g id="graph0" class="graph" transform="scale(1 1) rotate(0) translate(4 280)">
<title>dependencies</title>
<polygon fill="white" stroke="transparent" points="-4,4 -4,-280 1160,-280 1160,4 -4,4"/>
<text text-anchor="start" x="557.01" y="-42.4" font-family="Times-12" font-weight="bold" font-size="14.00">Legend</text>
<polygon fill="#ffffb3" stroke="transparent" points="344,-10 344,-30 364,-30 364,-10 344,-10"/>
<text text-anchor="start" x="367.63" y="-15.4" font-family="Times-12" font-size="14.00"> &#160;Declarations</text>
<polygon fill="#8dd3c7" stroke="transparent" points="457,-10 457,-30 477,-30 477,-10 457,-10"/>
<text text-anchor="start" x="480.73" y="-15.4" font-family="Times-12" font-size="14.00"> &#160;Module</text>
<polygon fill="#80b1d3" stroke="transparent" points="543,-10 543,-30 563,-30 563,-10 543,-10"/>
<text text-anchor="start" x="566.78" y="-15.4" font-family="Times-12" font-size="14.00"> &#160;Bootstrap</text>
<polygon fill="#fdb462" stroke="transparent" points="640,-10 640,-30 660,-30 660,-10 640,-10"/>
<text text-anchor="start" x="663.67" y="-15.4" font-family="Times-12" font-size="14.00"> &#160;Providers</text>
<polygon fill="#fb8072" stroke="transparent" points="736,-10 736,-30 756,-30 756,-10 736,-10"/>
<text text-anchor="start" x="759.73" y="-15.4" font-family="Times-12" font-size="14.00"> &#160;Exports</text>
<g id="clust1" class="cluster">
<title>cluster_AppModule</title>
<polygon fill="none" stroke="black" stroke-dasharray="1,5" points="8,-70 8,-268 1148,-268 1148,-70 8,-70"/>
</g>
<g id="clust10" class="cluster">
<title>cluster_AppModule_imports</title>
<polygon fill="none" stroke="black" points="996,-78 996,-130 1140,-130 1140,-78 996,-78"/>
</g>
<g id="clust2" class="cluster">
<title>cluster_AppModule_declarations</title>
<polygon fill="none" stroke="black" points="16,-78 16,-130 988,-130 988,-78 16,-78"/>
</g>
<g id="clust12" class="cluster">
<title>cluster_AppModule_bootstrap</title>
<polygon fill="none" stroke="black" points="529,-208 529,-260 653,-260 653,-208 529,-208"/>
</g>
<!-- AppComponent -->
<g id="node1" class="node">
<title>AppComponent</title>
<polygon fill="#ffffb3" stroke="black" points="979.94,-122 874.06,-122 874.06,-86 979.94,-86 979.94,-122"/>
<text text-anchor="middle" x="927" y="-99.8" font-family="Times,serif" font-size="14.00">AppComponent</text>
</g>
<!-- AppModule -->
<g id="node8" class="node">
<title>AppModule</title>
<polygon fill="#8dd3c7" stroke="black" points="632.66,-187 629.66,-191 608.66,-191 605.66,-187 549.34,-187 549.34,-151 632.66,-151 632.66,-187"/>
<text text-anchor="middle" x="591" y="-164.8" font-family="Times,serif" font-size="14.00">AppModule</text>
</g>
<!-- AppComponent&#45;&gt;AppModule -->
<g id="edge1" class="edge">
<title>AppComponent&#45;&gt;AppModule</title>
<path fill="none" stroke="black" d="M927,-122.11C927,-141.34 927,-169 927,-169 927,-169 642.88,-169 642.88,-169"/>
<polygon fill="black" stroke="black" points="642.88,-165.5 632.88,-169 642.88,-172.5 642.88,-165.5"/>
</g>
<!-- BlogComponent -->
<g id="node2" class="node">
<title>BlogComponent</title>
<polygon fill="#ffffb3" stroke="black" points="856.06,-122 747.94,-122 747.94,-86 856.06,-86 856.06,-122"/>
<text text-anchor="middle" x="802" y="-99.8" font-family="Times,serif" font-size="14.00">BlogComponent</text>
</g>
<!-- BlogComponent&#45;&gt;AppModule -->
<g id="edge2" class="edge">
<title>BlogComponent&#45;&gt;AppModule</title>
<path fill="none" stroke="black" d="M802,-122.03C802,-138.4 802,-160 802,-160 802,-160 642.69,-160 642.69,-160"/>
<polygon fill="black" stroke="black" points="642.69,-156.5 632.69,-160 642.69,-163.5 642.69,-156.5"/>
</g>
<!-- ContactoComponent -->
<g id="node3" class="node">
<title>ContactoComponent</title>
<polygon fill="#ffffb3" stroke="black" points="729.88,-122 598.12,-122 598.12,-86 729.88,-86 729.88,-122"/>
<text text-anchor="middle" x="664" y="-99.8" font-family="Times,serif" font-size="14.00">ContactoComponent</text>
</g>
<!-- ContactoComponent&#45;&gt;AppModule -->
<g id="edge3" class="edge">
<title>ContactoComponent&#45;&gt;AppModule</title>
<path fill="none" stroke="black" d="M615.44,-122.11C615.44,-122.11 615.44,-140.99 615.44,-140.99"/>
<polygon fill="black" stroke="black" points="611.94,-140.99 615.44,-150.99 618.94,-140.99 611.94,-140.99"/>
</g>
<!-- GaleriaComponent -->
<g id="node4" class="node">
<title>GaleriaComponent</title>
<polygon fill="#ffffb3" stroke="black" points="580.03,-122 457.97,-122 457.97,-86 580.03,-86 580.03,-122"/>
<text text-anchor="middle" x="519" y="-99.8" font-family="Times,serif" font-size="14.00">GaleriaComponent</text>
</g>
<!-- GaleriaComponent&#45;&gt;AppModule -->
<g id="edge4" class="edge">
<title>GaleriaComponent&#45;&gt;AppModule</title>
<path fill="none" stroke="black" d="M564.72,-122.11C564.72,-122.11 564.72,-140.99 564.72,-140.99"/>
<polygon fill="black" stroke="black" points="561.22,-140.99 564.72,-150.99 568.22,-140.99 561.22,-140.99"/>
</g>
<!-- InicioComponent -->
<g id="node5" class="node">
<title>InicioComponent</title>
<polygon fill="#ffffb3" stroke="black" points="439.99,-122 326.01,-122 326.01,-86 439.99,-86 439.99,-122"/>
<text text-anchor="middle" x="383" y="-99.8" font-family="Times,serif" font-size="14.00">InicioComponent</text>
</g>
<!-- InicioComponent&#45;&gt;AppModule -->
<g id="edge5" class="edge">
<title>InicioComponent&#45;&gt;AppModule</title>
<path fill="none" stroke="black" d="M383,-122.03C383,-138.4 383,-160 383,-160 383,-160 538.91,-160 538.91,-160"/>
<polygon fill="black" stroke="black" points="538.91,-163.5 548.91,-160 538.91,-156.5 538.91,-163.5"/>
</g>
<!-- NosotrosComponent -->
<g id="node6" class="node">
<title>NosotrosComponent</title>
<polygon fill="#ffffb3" stroke="black" points="307.88,-122 176.12,-122 176.12,-86 307.88,-86 307.88,-122"/>
<text text-anchor="middle" x="242" y="-99.8" font-family="Times,serif" font-size="14.00">NosotrosComponent</text>
</g>
<!-- NosotrosComponent&#45;&gt;AppModule -->
<g id="edge6" class="edge">
<title>NosotrosComponent&#45;&gt;AppModule</title>
<path fill="none" stroke="black" d="M242,-122.11C242,-141.34 242,-169 242,-169 242,-169 539.25,-169 539.25,-169"/>
<polygon fill="black" stroke="black" points="539.25,-172.5 549.25,-169 539.25,-165.5 539.25,-172.5"/>
</g>
<!-- ServiciosComponent -->
<g id="node7" class="node">
<title>ServiciosComponent</title>
<polygon fill="#ffffb3" stroke="black" points="157.93,-122 24.07,-122 24.07,-86 157.93,-86 157.93,-122"/>
<text text-anchor="middle" x="91" y="-99.8" font-family="Times,serif" font-size="14.00">ServiciosComponent</text>
</g>
<!-- ServiciosComponent&#45;&gt;AppModule -->
<g id="edge7" class="edge">
<title>ServiciosComponent&#45;&gt;AppModule</title>
<path fill="none" stroke="black" d="M91,-122.29C91,-144.21 91,-178 91,-178 91,-178 539.23,-178 539.23,-178"/>
<polygon fill="black" stroke="black" points="539.23,-181.5 549.23,-178 539.23,-174.5 539.23,-181.5"/>
</g>
<!-- AppComponent  -->
<g id="node10" class="node">
<title>AppComponent </title>
<polygon fill="#80b1d3" stroke="black" points="645.44,-252 536.56,-252 536.56,-216 645.44,-216 645.44,-252"/>
<text text-anchor="middle" x="591" y="-229.8" font-family="Times,serif" font-size="14.00">AppComponent </text>
</g>
<!-- AppModule&#45;&gt;AppComponent  -->
<g id="edge9" class="edge">
<title>AppModule&#45;&gt;AppComponent </title>
<path fill="none" stroke="black" stroke-dasharray="1,5" d="M591,-187.11C591,-187.11 591,-205.99 591,-205.99"/>
<polygon fill="black" stroke="black" points="587.5,-205.99 591,-215.99 594.5,-205.99 587.5,-205.99"/>
</g>
<!-- AppRoutingModule -->
<g id="node9" class="node">
<title>AppRoutingModule</title>
<polygon fill="#8dd3c7" stroke="black" points="1132.27,-122 1129.27,-126 1108.27,-126 1105.27,-122 1003.73,-122 1003.73,-86 1132.27,-86 1132.27,-122"/>
<text text-anchor="middle" x="1068" y="-99.8" font-family="Times,serif" font-size="14.00">AppRoutingModule</text>
</g>
<!-- AppRoutingModule&#45;&gt;AppModule -->
<g id="edge8" class="edge">
<title>AppRoutingModule&#45;&gt;AppModule</title>
<path fill="none" stroke="black" d="M1068,-122.29C1068,-144.21 1068,-178 1068,-178 1068,-178 642.91,-178 642.91,-178"/>
<polygon fill="black" stroke="black" points="642.91,-174.5 632.91,-178 642.91,-181.5 642.91,-174.5"/>
</g>
</g>
</svg>
