<?xml version="1.0" encoding="UTF-8" standalone="no"?>
<!DOCTYPE svg PUBLIC "-//W3C//DTD SVG 1.1//EN"
 "http://www.w3.org/Graphics/SVG/1.1/DTD/svg11.dtd">
<!-- Generated by graphviz version 2.47.0 (20210316.0004)
 -->
<!-- Title: dependencies Pages: 1 -->
<svg width="1308pt" height="284pt"
 viewBox="0.00 0.00 1308.00 284.00" xmlns="http://www.w3.org/2000/svg" xmlns:xlink="http://www.w3.org/1999/xlink">
<g id="graph0" class="graph" transform="scale(1 1) rotate(0) translate(4 280)">
<title>dependencies</title>
<polygon fill="white" stroke="transparent" points="-4,4 -4,-280 1304,-280 1304,4 -4,4"/>
<text text-anchor="start" x="629.01" y="-42.4" font-family="Times-12" font-weight="bold" font-size="14.00">Legend</text>
<polygon fill="#ffffb3" stroke="transparent" points="416,-10 416,-30 436,-30 436,-10 416,-10"/>
<text text-anchor="start" x="439.63" y="-15.4" font-family="Times-12" font-size="14.00"> &#160;Declarations</text>
<polygon fill="#8dd3c7" stroke="transparent" points="529,-10 529,-30 549,-30 549,-10 529,-10"/>
<text text-anchor="start" x="552.73" y="-15.4" font-family="Times-12" font-size="14.00"> &#160;Module</text>
<polygon fill="#80b1d3" stroke="transparent" points="615,-10 615,-30 635,-30 635,-10 615,-10"/>
<text text-anchor="start" x="638.78" y="-15.4" font-family="Times-12" font-size="14.00"> &#160;Bootstrap</text>
<polygon fill="#fdb462" stroke="transparent" points="712,-10 712,-30 732,-30 732,-10 712,-10"/>
<text text-anchor="start" x="735.67" y="-15.4" font-family="Times-12" font-size="14.00"> &#160;Providers</text>
<polygon fill="#fb8072" stroke="transparent" points="808,-10 808,-30 828,-30 828,-10 808,-10"/>
<text text-anchor="start" x="831.73" y="-15.4" font-family="Times-12" font-size="14.00"> &#160;Exports</text>
<g id="clust1" class="cluster">
<title>cluster_AppModule</title>
<polygon fill="none" stroke="black" stroke-dasharray="1,5" points="8,-70 8,-268 1148,-268 1148,-70 8,-70"/>
</g>
<g id="clust2" class="cluster">
<title>cluster_AppModule_declarations</title>
<polygon fill="none" stroke="black" points="168,-78 168,-130 1140,-130 1140,-78 168,-78"/>
</g>
<g id="clust10" class="cluster">
<title>cluster_AppModule_imports</title>
<polygon fill="none" stroke="black" points="16,-78 16,-130 160,-130 160,-78 16,-78"/>
</g>
<g id="clust12" class="cluster">
<title>cluster_AppModule_bootstrap</title>
<polygon fill="none" stroke="black" points="884,-208 884,-260 1008,-260 1008,-208 884,-208"/>
</g>
<g id="clust20" class="cluster">
<title>cluster_AppServerModule</title>
<polygon fill="none" stroke="black" stroke-dasharray="1,5" points="1156,-208 1156,-260 1292,-260 1292,-208 1156,-208"/>
</g>
<!-- AppComponent -->
<g id="node1" class="node">
<title>AppComponent</title>
<polygon fill="#ffffb3" stroke="black" points="1131.94,-122 1026.06,-122 1026.06,-86 1131.94,-86 1131.94,-122"/>
<text text-anchor="middle" x="1079" y="-99.8" font-family="Times,serif" font-size="14.00">AppComponent</text>
</g>
<!-- AppModule -->
<g id="node8" class="node">
<title>AppModule</title>
<polygon fill="#8dd3c7" stroke="black" points="784.66,-187 781.66,-191 760.66,-191 757.66,-187 701.34,-187 701.34,-151 784.66,-151 784.66,-187"/>
<text text-anchor="middle" x="743" y="-164.8" font-family="Times,serif" font-size="14.00">AppModule</text>
</g>
<!-- AppComponent&#45;&gt;AppModule -->
<g id="edge1" class="edge">
<title>AppComponent&#45;&gt;AppModule</title>
<path fill="none" stroke="black" d="M1079,-122.27C1079,-140.56 1079,-166 1079,-166 1079,-166 794.88,-166 794.88,-166"/>
<polygon fill="black" stroke="black" points="794.88,-162.5 784.88,-166 794.88,-169.5 794.88,-162.5"/>
</g>
<!-- BlogComponent -->
<g id="node2" class="node">
<title>BlogComponent</title>
<polygon fill="#ffffb3" stroke="black" points="1008.06,-122 899.94,-122 899.94,-86 1008.06,-86 1008.06,-122"/>
<text text-anchor="middle" x="954" y="-99.8" font-family="Times,serif" font-size="14.00">BlogComponent</text>
</g>
<!-- BlogComponent&#45;&gt;AppModule -->
<g id="edge2" class="edge">
<title>BlogComponent&#45;&gt;AppModule</title>
<path fill="none" stroke="black" d="M950.09,-122.01C950.09,-138.05 950.09,-159 950.09,-159 950.09,-159 794.91,-159 794.91,-159"/>
<polygon fill="black" stroke="black" points="794.91,-155.5 784.91,-159 794.91,-162.5 794.91,-155.5"/>
</g>
<!-- ContactoComponent -->
<g id="node3" class="node">
<title>ContactoComponent</title>
<polygon fill="#ffffb3" stroke="black" points="881.88,-122 750.12,-122 750.12,-86 881.88,-86 881.88,-122"/>
<text text-anchor="middle" x="816" y="-99.8" font-family="Times,serif" font-size="14.00">ContactoComponent</text>
</g>
<!-- ContactoComponent&#45;&gt;AppModule -->
<g id="edge3" class="edge">
<title>ContactoComponent&#45;&gt;AppModule</title>
<path fill="none" stroke="black" d="M767.44,-122.11C767.44,-122.11 767.44,-140.99 767.44,-140.99"/>
<polygon fill="black" stroke="black" points="763.94,-140.99 767.44,-150.99 770.94,-140.99 763.94,-140.99"/>
</g>
<!-- GaleriaComponent -->
<g id="node4" class="node">
<title>GaleriaComponent</title>
<polygon fill="#ffffb3" stroke="black" points="732.03,-122 609.97,-122 609.97,-86 732.03,-86 732.03,-122"/>
<text text-anchor="middle" x="671" y="-99.8" font-family="Times,serif" font-size="14.00">GaleriaComponent</text>
</g>
<!-- GaleriaComponent&#45;&gt;AppModule -->
<g id="edge4" class="edge">
<title>GaleriaComponent&#45;&gt;AppModule</title>
<path fill="none" stroke="black" d="M716.72,-122.11C716.72,-122.11 716.72,-140.99 716.72,-140.99"/>
<polygon fill="black" stroke="black" points="713.22,-140.99 716.72,-150.99 720.22,-140.99 713.22,-140.99"/>
</g>
<!-- InicioComponent -->
<g id="node5" class="node">
<title>InicioComponent</title>
<polygon fill="#ffffb3" stroke="black" points="591.99,-122 478.01,-122 478.01,-86 591.99,-86 591.99,-122"/>
<text text-anchor="middle" x="535" y="-99.8" font-family="Times,serif" font-size="14.00">InicioComponent</text>
</g>
<!-- InicioComponent&#45;&gt;AppModule -->
<g id="edge5" class="edge">
<title>InicioComponent&#45;&gt;AppModule</title>
<path fill="none" stroke="black" d="M535,-122.01C535,-138.05 535,-159 535,-159 535,-159 690.91,-159 690.91,-159"/>
<polygon fill="black" stroke="black" points="690.91,-162.5 700.91,-159 690.91,-155.5 690.91,-162.5"/>
</g>
<!-- NosotrosComponent -->
<g id="node6" class="node">
<title>NosotrosComponent</title>
<polygon fill="#ffffb3" stroke="black" points="459.88,-122 328.12,-122 328.12,-86 459.88,-86 459.88,-122"/>
<text text-anchor="middle" x="394" y="-99.8" font-family="Times,serif" font-size="14.00">NosotrosComponent</text>
</g>
<!-- NosotrosComponent&#45;&gt;AppModule -->
<g id="edge6" class="edge">
<title>NosotrosComponent&#45;&gt;AppModule</title>
<path fill="none" stroke="black" d="M394,-122.27C394,-140.56 394,-166 394,-166 394,-166 691.25,-166 691.25,-166"/>
<polygon fill="black" stroke="black" points="691.25,-169.5 701.25,-166 691.25,-162.5 691.25,-169.5"/>
</g>
<!-- ServiciosComponent -->
<g id="node7" class="node">
<title>ServiciosComponent</title>
<polygon fill="#ffffb3" stroke="black" points="309.93,-122 176.07,-122 176.07,-86 309.93,-86 309.93,-122"/>
<text text-anchor="middle" x="243" y="-99.8" font-family="Times,serif" font-size="14.00">ServiciosComponent</text>
</g>
<!-- ServiciosComponent&#45;&gt;AppModule -->
<g id="edge7" class="edge">
<title>ServiciosComponent&#45;&gt;AppModule</title>
<path fill="none" stroke="black" d="M243,-122.13C243,-142.57 243,-173 243,-173 243,-173 691.23,-173 691.23,-173"/>
<polygon fill="black" stroke="black" points="691.23,-176.5 701.23,-173 691.23,-169.5 691.23,-176.5"/>
</g>
<!-- AppComponent  -->
<g id="node10" class="node">
<title>AppComponent </title>
<polygon fill="#80b1d3" stroke="black" points="1000.44,-252 891.56,-252 891.56,-216 1000.44,-216 1000.44,-252"/>
<text text-anchor="middle" x="946" y="-229.8" font-family="Times,serif" font-size="14.00">AppComponent </text>
</g>
<!-- AppModule&#45;&gt;AppComponent  -->
<g id="edge9" class="edge">
<title>AppModule&#45;&gt;AppComponent </title>
<path fill="none" stroke="black" stroke-dasharray="1,5" d="M784.71,-180C829.9,-180 895.63,-180 895.63,-180 895.63,-180 895.63,-205.72 895.63,-205.72"/>
<polygon fill="black" stroke="black" points="892.13,-205.72 895.63,-215.72 899.13,-205.72 892.13,-205.72"/>
</g>
<!-- AppServerModule -->
<g id="node11" class="node">
<title>AppServerModule</title>
<polygon fill="#8dd3c7" stroke="black" points="1284.19,-252 1281.19,-256 1260.19,-256 1257.19,-252 1163.81,-252 1163.81,-216 1284.19,-216 1284.19,-252"/>
<text text-anchor="middle" x="1224" y="-229.8" font-family="Times,serif" font-size="14.00">AppServerModule</text>
</g>
<!-- AppModule&#45;&gt;AppServerModule -->
<g id="edge10" class="edge">
<title>AppModule&#45;&gt;AppServerModule</title>
<path fill="none" stroke="black" d="M784.84,-173C901.87,-173 1224,-173 1224,-173 1224,-173 1224,-205.7 1224,-205.7"/>
<polygon fill="black" stroke="black" points="1220.5,-205.7 1224,-215.7 1227.5,-205.7 1220.5,-205.7"/>
</g>
<!-- AppRoutingModule -->
<g id="node9" class="node">
<title>AppRoutingModule</title>
<polygon fill="#8dd3c7" stroke="black" points="152.27,-122 149.27,-126 128.27,-126 125.27,-122 23.73,-122 23.73,-86 152.27,-86 152.27,-122"/>
<text text-anchor="middle" x="88" y="-99.8" font-family="Times,serif" font-size="14.00">AppRoutingModule</text>
</g>
<!-- AppRoutingModule&#45;&gt;AppModule -->
<g id="edge8" class="edge">
<title>AppRoutingModule&#45;&gt;AppModule</title>
<path fill="none" stroke="black" d="M88,-122.01C88,-144.49 88,-180 88,-180 88,-180 691.03,-180 691.03,-180"/>
<polygon fill="black" stroke="black" points="691.03,-183.5 701.03,-180 691.03,-176.5 691.03,-183.5"/>
</g>
<!-- AppServerModule&#45;&gt;AppComponent  -->
<g id="edge11" class="edge">
<title>AppServerModule&#45;&gt;AppComponent </title>
<path fill="none" stroke="black" stroke-dasharray="1,5" d="M1163.68,-234C1163.68,-234 1010.55,-234 1010.55,-234"/>
<polygon fill="black" stroke="black" points="1010.55,-230.5 1000.55,-234 1010.55,-237.5 1010.55,-230.5"/>
</g>
</g>
</svg>
